<?xml version="1.0" encoding="utf-8"?>
<!-- Generator: Adobe Illustrator 22.1.0, SVG Export Plug-In . SVG Version: 6.00 Build 0)  -->
<svg version="1.1" id="Слой_1" xmlns="http://www.w3.org/2000/svg" xmlns:xlink="http://www.w3.org/1999/xlink" x="0px" y="0px"
	 viewBox="0 0 794 190.6" style="enable-background:new 0 0 794 190.6;" xml:space="preserve">
<style type="text/css">
	.st0{fill:#0A397C;}
	.st1{fill:url(#SVGID_1_);}
</style>
<g>
	<path class="st0" d="M164.7,144.6c-0.2,0-0.4,0.1-0.6,0.1l-17.1-0.5c-0.9,0-1.7-0.6-2-1.4l-0.8-1.9c-0.4-0.8-0.2-1.8,0.5-2.4
		c13.1-13.8,16.3-22.2,16.8-28.7c0.6-7.1-3.1-13.9-9.5-17.2c-11.6-5.9-28.3-3.7-41.4-0.3c-7.4,1.9-14.2,5.6-20.3,10
		c-9.7,7.1-20.9,10.3-29.7,11.9c0,0-0.1,0-0.1,0C42.3,116,33.4,125,29.6,130.7c-1.4,2.1,0.1,4.9,2.6,5l15.4,0.6
		c1.2,0,6.7,0.7,6.7,1.9v0.1c0,1.1-5.4,2.4-6.5,2.5L29.6,143l-2.3,0.3l-1.3,0.2c11.5,27.7,38.8,47.2,70.6,47.2
		c31.4,0,58.3-18.9,70.1-45.9L164.7,144.6z M84.2,144.9c3.2-3.3,4.2-7.7,2.2-10.9c-2.5-4-8.6-4.6-13.7-1.4
		c-5.1,3.2-7.2,8.9-4.7,12.9c2,3.2,6.4,4.2,10.8,2.8c-6.6,2.8-13.7,1.5-16.9-3.5c-3.6-5.7-0.5-14,6.8-18.6c7.3-4.6,16.2-3.7,19.7,2
		C91.6,133.1,89.6,140.1,84.2,144.9z M132.1,144.9c3.2-3.3,4.2-7.7,2.2-10.9c-2.5-4-8.6-4.6-13.7-1.4c-5.1,3.2-7.2,8.9-4.7,12.9
		c2,3.2,6.4,4.2,10.8,2.8c-6.6,2.8-13.7,1.5-16.9-3.5c-3.6-5.7-0.5-14,6.8-18.6c7.3-4.6,16.2-3.7,19.7,2
		C139.5,133.1,137.5,140.1,132.1,144.9z"/>
	<path class="st0" d="M168.1,86.8c-2.6-1.8-5.6-3.3-8.6-4.2c-10.9-3.3-34.9-7.2-62.8,8.3c-27.6,15.3-36.5,16.6-43.6,17.3
		c-5,0.5-9.8,2.3-13.9,5.2c-7.8,5.5-11.3,8.6-15.4,19.1v0c0,0.1-0.1,0.2-0.1,0.4c-0.1,0.2-0.3,0.3-0.6,0.3c-0.3,0-0.5-0.2-0.6-0.4
		c0-0.1-0.1-0.2-0.1-0.3c-1.5-5.9-2.2-12-2.2-18.4c0-42.2,34.2-76.5,76.5-76.5C129.2,37.6,157.1,58,168.1,86.8z"/>
	<path class="st0" d="M132.1,144.9C132.1,144.9,132.1,144.9,132.1,144.9c-0.8,0.7-1.6,1.3-2.5,1.9c-0.9,0.6-1.9,1.1-2.9,1.5
		c-4.3,1.4-8.7,0.4-10.8-2.8c-2.5-4-0.4-9.7,4.7-12.9c5.1-3.2,11.2-2.6,13.7,1.4C136.3,137.2,135.3,141.6,132.1,144.9z"/>
	<path class="st0" d="M132.1,144.9C132.1,144.9,132.1,144.9,132.1,144.9c-0.7,0.8-1.6,1.4-2.5,2c-1,0.6-1.9,1.1-2.9,1.4
		c-4.3,1.4-8.7,0.4-10.8-2.8c-2.5-4-0.4-9.7,4.7-12.9c5.1-3.2,11.2-2.6,13.7,1.4C136.3,137.2,135.3,141.6,132.1,144.9z"/>
	<path class="st0" d="M84.2,144.9C84.2,144.9,84.2,144.9,84.2,144.9c-0.8,0.7-1.6,1.3-2.5,1.9c-0.9,0.6-1.9,1.1-2.9,1.5
		c-4.3,1.4-8.7,0.4-10.8-2.8c-2.5-4-0.4-9.7,4.7-12.9c5.1-3.2,11.2-2.6,13.7,1.4C88.4,137.2,87.4,141.6,84.2,144.9z"/>
	<path class="st0" d="M84.2,144.9C84.2,144.9,84.2,144.9,84.2,144.9c-0.7,0.8-1.6,1.4-2.5,2c-1,0.6-1.9,1.1-2.9,1.4
		c-4.3,1.4-8.7,0.4-10.8-2.8c-2.5-4-0.4-9.7,4.7-12.9c5.1-3.2,11.2-2.6,13.7,1.4C88.4,137.2,87.4,141.6,84.2,144.9z"/>
	<path class="st0" d="M793.3,105.1l-14.1,0.6c0.4-3.6-0.2-6.1-1.7-7.7c-1.5-1.6-4.2-2.3-8.2-2.3c-4,0-7.4,0.8-10.2,2.5
		c-1.8,1.1-2.9,2.5-3.4,4.3c-0.5,1.6-0.2,3.1,0.9,4.2c1.3,1.5,5.2,3,11.5,4.6c6.3,1.6,10.9,3.3,13.6,5c2.8,1.7,4.7,4.1,5.7,7.1
		c1,3,0.9,6.7-0.3,11.1c-1.1,4-3.2,7.7-6.4,11.2c-3.1,3.5-7,6.1-11.4,7.8c-4.5,1.7-9.7,2.5-15.7,2.5c-8.7,0-14.8-2-18.4-6.1
		c-3.5-4.1-4.7-10-3.5-17.8l13.9-1.3c-0.4,4.6,0.3,7.9,2.2,10.1c1.9,2.1,5,3.2,9.2,3.2c4.5,0,8.1-1,10.9-2.9
		c2.8-1.9,4.5-4.1,5.3-6.7c0.5-1.6,0.4-3-0.3-4.2c-0.6-1.2-2-2.2-4.2-3c-1.5-0.6-4.9-1.6-10.3-3c-6.9-1.9-11.5-4.2-13.8-6.9
		c-3.2-3.8-4-8.5-2.5-14c1-3.5,2.9-6.8,5.7-9.9c2.8-3.1,6.3-5.4,10.5-7c4.2-1.6,8.9-2.4,14.2-2.4c8.6,0,14.6,1.9,17.9,5.7
		C793.9,93.6,794.8,98.7,793.3,105.1z M721.9,100.6c-1-1.6-2.6-2.7-4.7-3.1c-1.6-0.3-4.9-0.5-9.9-0.5h-6.7l-5.4,19.7h7.6
		c5.5,0,9.2-0.4,11.3-1.1c2-0.7,3.8-1.9,5.3-3.4c1.5-1.5,2.5-3.3,3.1-5.4C723,104.3,722.9,102.2,721.9,100.6z M736.7,106.6
		c-1.2,4.3-2.9,7.9-5.3,10.8c-2.3,2.9-4.9,5.2-7.7,6.9c-2.8,1.7-5.5,2.8-8.1,3.3c-3.5,0.7-8.4,1-14.7,1h-9.1l-7.2,26.2h-13.9
		l19.1-69.5h22.3c8.5,0,13.9,0.3,16.2,1c3.7,1,6.3,3.3,8,6.8C738.1,96.6,738.2,101.1,736.7,106.6z M676.6,104.5l-14.5,2.6
		c0-3.4-1.1-6.1-3.2-8.1c-2.1-2-5.2-3-9.2-3c-6.1,0-11.4,1.9-16.1,5.8c-4.7,3.9-8,9.7-10.1,17.3c-2.3,8.2-2.2,14.4,0.3,18.6
		c2.5,4.1,6.7,6.2,12.6,6.2c2.9,0,6-0.6,9.2-1.7c3.2-1.2,6.1-2.6,8.7-4.2l2.4-8.8h-15.9l3.2-11.7h30l-7.6,27.7
		c-3.7,2.8-8.6,5.4-14.7,7.5c-6.1,2.2-12,3.2-17.7,3.2c-7.2,0-13.1-1.5-17.6-4.6c-4.5-3-7.3-7.4-8.5-13.1
		c-1.1-5.7-0.8-11.8,1.1-18.5c2-7.2,5.3-13.7,9.8-19.3c4.6-5.6,10.1-9.9,16.8-12.9c5-2.3,10.9-3.5,17.4-3.5c8.5,0,14.7,1.8,18.5,5.4
		C675.3,93.1,677,98.1,676.6,104.5z"/>
	<g>
		<path class="st0" d="M243.8,105.2c-2.4,2.6-4.8,5.3-7.3,7.8c-12.2,12.2-24.4,24.4-36.6,36.6c-0.6,0.6-1.4,1-1.8,1.7
			c-2.8,4.1-6.7,5.2-11.4,4.6c-2.9-0.3-5.9-0.1-9.2-0.1c11.3-19.3,14.9-39.6,9.4-61.2c-5.5-21.6-18.4-37.9-36.7-50.1
			c5.9,1,21.5,10.8,29.1,18.2c8.5,8.2,15.1,17.7,19.4,28.7c4.3,10.9,5.7,22.3,4.7,34.2c2.9-2.8,5.6-5.4,8.2-8
			c9-9.2,18-18.5,27.1-27.7c0.3-0.3,0.8-0.6,1.3-0.6c6.2,0,12.3,0,18.8,0c0.9,9.1,1.8,18.2,2.7,27.2c0.9,9,1.9,18.1,2.9,27.7
			c0.7-1,1.2-1.5,1.5-2.1c11-18.1,21.9-36.1,32.9-54.2c0.7-1.2,1.5-1.7,3-1.7c4.9,0.1,9.8,0,15.1,0c-2,3.2-3.8,6.1-5.6,9
			c-12.1,19.4-24.2,38.8-36.3,58.1c-0.4,0.6-1.2,1.2-1.8,1.2c-7.6,0.1-15.3,0-22.9,0c-0.1,0-0.2-0.1-0.6-0.2
			c-1.6-16.2-3.3-32.5-4.9-48.8C244.3,105.5,244.1,105.3,243.8,105.2z"/>
		<path class="st0" d="M462.5,113.5c0.7-2.5,1.4-4.7,2-6.8c1.8-6.4,3.5-12.7,5.3-19c0.2-0.6,0.8-1.4,1.3-1.4
			c4.5-0.1,9.1-0.1,13.8-0.1c-1.7,6.2-3.4,12.3-5,18.4c-4.4,16-8.8,31.9-13.1,47.9c-0.4,1.6-1.1,2.2-2.8,2.1c-4.1-0.2-8.2,0-12.5,0
			c0.8-2.4,1.5-4.6,2.4-7.3c-1.9,1.5-3.4,2.8-5,3.9c-3.5,2.4-7.6,3.5-11.8,3.7c-5.4,0.3-10.8,0.5-16.1-1c-5.4-1.5-8.5-5.1-8.3-10.6
			c0.4-9,2.9-17.6,7-25.6c2.9-5.6,7.8-8.8,13.8-10.2c6.4-1.6,13-1.6,19.5-0.7C457.6,107.4,459.8,109,462.5,113.5z M438.6,147
			C438.6,146.9,438.5,147.1,438.6,147c1.7-0.1,3.5-0.4,5.2-0.7c4.1-0.5,8.1-1.5,10.2-5.4c3.3-5.9,4.8-12.4,5.5-19.1
			c0.4-3.6-1.5-6-5.2-6.4c-4.2-0.5-8.5-0.5-12.8-0.3c-3.8,0.2-6.9,2.2-8.4,5.8c-1.6,3.9-3,7.9-4.1,11.9c-0.7,2.6-1,5.3-1.2,8
			c-0.1,2,0.9,3.7,2.8,4.3C433.2,146,435.9,146.4,438.6,147z"/>
		<path class="st0" d="M336.3,154.7c0.7-2,1.3-3.7,1.9-5.5c-3.1,3.1-6.8,5-10.9,5.3c-5.9,0.5-11.8,0.4-17.7,0.4
			c-1.7,0-3.5-0.5-5.2-0.9c-5.6-1.5-8.1-5.4-7.1-11c1.9-10.4,7.6-15.7,18.1-16.9c6-0.7,11.9-0.9,17.9-0.3c4.1,0.4,6.4,1.6,9.4,5.4
			c0.8-2.9,1.6-5.5,2.3-8.2c1.4-6.4,0.2-8.2-6.4-8.5c-3.9-0.2-7.8,0-11.6,0.4c-2.8,0.3-4.9,2-6,4.8c-0.2,0.5-0.9,1.1-1.4,1.1
			c-4.5,0.1-8.9,0.1-13.7,0.1c0.6-2.9,1.8-5.3,3.6-7.4c3-3.6,7-5.4,11.5-6c10.4-1.5,20.8-1.6,31.2,0.2c4.9,0.9,8.1,3.9,8.2,7.8
			c0.1,2.7-0.1,5.6-0.8,8.2c-2.6,10-5.4,19.9-8.1,29.8c-0.3,0.9-0.6,1.4-1.6,1.4C345.3,154.6,340.9,154.7,336.3,154.7z M323.4,147.7
			c3.3-0.2,5.9-0.3,8.5-0.6c4.7-0.6,7.7-3.3,8.6-7.5c0.7-3.5-0.5-5.7-4.1-6c-5.2-0.4-10.4-0.3-15.6-0.2c-5.9,0.2-8.2,4.7-8.5,8.8
			c-0.2,2.6,0.5,4.1,3.1,4.5C318.2,147.3,321.1,147.5,323.4,147.7z"/>
		<path class="st0" d="M493.2,132.7c-0.5,2.8-1.2,5.4-1.5,8.1c-0.3,2.4,0.7,3.8,3,4.6c0.9,0.4,1.9,0.7,2.9,0.7
			c5,0,10.1,0.1,15.1-0.3c2.9-0.2,5.1-2.2,6.3-5.1c0.2-0.5,0.9-1.2,1.3-1.2c4.5-0.1,9.1-0.1,13.6-0.1c-0.8,6.4-6.1,12.3-13.1,13.9
			c-3.9,0.9-7.9,1.4-11.9,1.5c-5.9,0.2-11.8-0.1-17.7-0.4c-2.2-0.1-4.5-0.6-6.6-1.3c-5.6-1.8-8.2-5.9-7.5-11.9
			c0.8-7.3,2.8-14.3,5.7-21c3.2-7.2,9-11.4,16.6-12.9c10-1.9,20.2-2,30.2-0.1c5.2,1,9.6,3.8,9,11.2c-0.2,3.1-0.6,6.1-1.3,9.1
			c-1.1,5-1.2,5-6.3,5c-11.8,0-23.7,0-35.5,0C494.8,132.7,494.2,132.7,493.2,132.7z M495.6,125.5c0.6,0,1.1,0.1,1.7,0.1
			c7.5,0,15,0,22.5,0c4.1,0,4.2-0.1,4.6-4.2c0.5-4.4-0.4-5.9-4.8-6.3c-4.6-0.4-9.2-0.5-13.8,0C499.1,115.9,496.1,119.3,495.6,125.5z
			"/>
		<path class="st0" d="M577.7,154.7c1.3-4.9,2.6-9.5,3.9-14.2c1.6-5.9,3.3-11.8,4.8-17.8c1.2-4.9,0-7-5-7.6
			c-4.3-0.5-8.7-0.5-12.9,0.7c-4.8,1.4-7.7,4.7-9,9.4c-2.6,9-5.1,18.1-7.6,27.2c-0.4,1.6-1,2.4-2.9,2.3c-4.1-0.2-8.2-0.1-12.6-0.1
			c0.9-3.3,1.7-6.4,2.6-9.5c3.4-12.3,6.8-24.5,10.1-36.8c0.4-1.3,0.9-1.7,2.2-1.6c4.3,0.1,8.6,0,13.1,0c-0.6,2.4-1.2,4.7-1.9,7.3
			c0.5-0.3,0.8-0.4,0.9-0.5c3.1-4,7.3-6,12.1-6.7c6.1-0.8,12.3-1,18.4,0.3c5.4,1.1,8.8,3.9,8.3,10.4c-0.2,1.8-0.4,3.6-0.9,5.4
			c-2.7,10.1-5.6,20.2-8.3,30.3c-0.3,1.2-0.8,1.6-2,1.6C586.6,154.6,582.3,154.7,577.7,154.7z"/>
		<path class="st0" d="M358.9,154.7c1.8-6.6,3.6-13,5.3-19.4c2.5-9,5-18,7.5-27c0.2-0.6,0.9-1.4,1.4-1.4c4.3-0.1,8.7-0.1,13.3-0.1
			c-0.7,2.2-1.3,4.2-1.9,6.2c3-2.6,6.1-4.6,9.8-5.6c5.3-1.3,10.7-1.6,16-0.3c4.3,1.1,6.3,3.7,6,8.1c-0.2,3-1,5.9-1.7,8.9
			c-0.1,0.4-0.9,0.9-1.3,0.9c-4.1,0.1-8.2,0-12.6,0c0.3-1.5,0.6-2.8,0.9-4.1c1-4-0.5-5.9-4.6-5.9c-2.2,0-4.4,0-6.6,0.5
			c-4.8,1.1-7.5,4.3-8.7,8.9c-2.6,9.6-5.3,19.1-7.8,28.7c-0.3,1.2-0.8,1.6-2,1.6C367.8,154.6,363.5,154.7,358.9,154.7z"/>
	</g>
	<g>
		<polygon class="st0" points="0,65.5 4,61.5 4,71.3 0,75.3 		"/>
		<path class="st0" d="M8.7,58v9.9l17.1-14h11.6l9.9-8.6c0,0-13-1.1-13.1-1.4S33,31.6,33,31.6l-1.5-1.7l-8.5,7L23.3,47L8.7,58z"/>
		<polygon class="st0" points="47.2,26 47.2,34.1 49.7,35.2 65.6,23.4 66.6,13.8 64.6,13.8 		"/>
		<path class="st0" d="M70.9,8.2c0,0.4-0.9,9.4-0.9,9.4l2.6,0.6l8.3-6.2l1.4-12L70.9,8.2z"/>
	</g>
	<linearGradient id="SVGID_1_" gradientUnits="userSpaceOnUse" x1="88.0753" y1="92.0788" x2="62.2755" y2="47.3922">
		<stop  offset="0.3051" style="stop-color:#B5D3F7;stop-opacity:0"/>
		<stop  offset="0.4458" style="stop-color:#B9D5F7;stop-opacity:0.1838"/>
		<stop  offset="0.5893" style="stop-color:#C5DDF9;stop-opacity:0.3714"/>
		<stop  offset="0.7342" style="stop-color:#DAE9FB;stop-opacity:0.5608"/>
		<stop  offset="0.8793" style="stop-color:#F6FAFE;stop-opacity:0.7502"/>
		<stop  offset="0.9173" style="stop-color:#FFFFFF;stop-opacity:0.8"/>
		<stop  offset="1" style="stop-color:#FFFFFF"/>
	</linearGradient>
	<path class="st1" d="M36.4,90c6.6,12.6,29.3,13.8,50.7,2.6s33.4-30.5,26.8-43.1c-6.6-12.6-29.3-13.8-50.7-2.6S29.9,77.4,36.4,90z"
		/>
</g>
</svg>
